<svg xmlns="http://www.w3.org/2000/svg" viewBox="0 0 32 32" fill="none">
  <circle cx="16" cy="17" r="12" fill="#f6d6c6"/>
  <path d="M7 13c1-5 5.5-8 9-8s8 3 9 8v3c0 1.5-.5 3-2 4-2 1.5-5 2-7 2s-5-.5-7-2c-1.5-1-2-2.5-2-4v-3z" fill="#d45d4a"/>
  <path d="M8 13c2-3 5-3 8-1M16 12c3-2 6-2 8 1" stroke="#2a1f1b" stroke-width="1.1" stroke-linecap="round"/>
  <path d="M6 16c2-1 4-1 6 0" stroke="#2a1f1b" stroke-width="1" stroke-linecap="round" opacity="0.35"/>
  <path d="M20 16c2-1 4-1 6 0" stroke="#2a1f1b" stroke-width="1" stroke-linecap="round" opacity="0.35"/>
  <rect x="11" y="17" width="3.2" height="2.2" rx="1.1" fill="#2a1f1b"/>
  <rect x="17.8" y="17" width="3.2" height="2.2" rx="1.1" fill="#2a1f1b"/>
  <rect x="12" y="17.4" width="1.2" height="1.2" rx="0.6" fill="#f6d6c6"/>
  <rect x="18.8" y="17.4" width="1.2" height="1.2" rx="0.6" fill="#f6d6c6"/>
  <line x1="15.5" y1="22.5" x2="16.5" y2="22.5" stroke="#2a1f1b" stroke-width="1.3" stroke-linecap="round"/>
</svg>
